<?xml version="1.0" standalone="no"?>
<!DOCTYPE svg PUBLIC "-//W3C//DTD SVG 20010904//EN"
 "http://www.w3.org/TR/2001/REC-SVG-20010904/DTD/svg10.dtd">
<svg version="1.0" xmlns="http://www.w3.org/2000/svg"
 width="271.000000pt" height="53.000000pt" viewBox="0 0 271.000000 53.000000"
 preserveAspectRatio="xMidYMid meet">
<metadata>
Created by potrace 1.10, written by Peter Selinger 2001-2011
</metadata>
<g transform="translate(0.000000,53.000000) scale(0.100000,-0.100000)"
fill="#01DFA5" stroke="none">
<path d="M40 270 l0 -230 75 0 75 0 0 85 0 85 65 0 65 0 0 -85 0 -85 80 0 80
0 0 230 0 230 -80 0 -80 0 0 -95 0 -95 -65 0 -65 0 0 95 0 95 -75 0 -75 0 0
-230z"/>
<path d="M530 286 c0 -211 0 -215 22 -230 19 -13 57 -16 220 -16 l198 0 0 230
0 230 -220 0 -220 0 0 -214z m280 -11 l0 -135 -65 0 -65 0 0 135 0 135 65 0
65 0 0 -135z"/>
<path d="M1032 488 c-9 -9 -12 -74 -12 -230 l0 -218 75 0 74 0 3 118 3 117 34
-95 c52 -147 44 -140 159 -140 63 0 102 4 110 12 9 9 12 74 12 230 l0 218 -75
0 -75 0 0 -122 c0 -70 -4 -118 -9 -112 -5 5 -23 54 -41 109 -18 55 -37 106
-43 113 -13 16 -198 17 -215 0z"/>
<path d="M1562 484 c-21 -15 -22 -20 -22 -214 0 -194 1 -199 22 -214 19 -13
57 -16 220 -16 l198 0 0 135 0 136 -77 -3 -78 -3 -3 -82 -3 -83 -64 0 -65 0 0
135 0 135 145 0 145 0 0 45 0 45 -198 0 c-163 0 -201 -3 -220 -16z"/>
<path d="M2047 482 c-14 -15 -17 -40 -17 -130 0 -143 -1 -142 162 -142 l118 0
0 -35 0 -35 -125 0 -125 0 0 -50 0 -50 205 0 205 0 0 109 c0 155 0 155 -164
159 l-126 4 0 49 0 49 145 0 145 0 0 45 0 45 -203 0 c-185 0 -205 -2 -220 -18z"/>
<path d="M2520 270 l0 -230 75 0 75 0 0 230 0 230 -75 0 -75 0 0 -230z"/>
</g>
</svg>
